<svg xmlns="http://www.w3.org/2000/svg" width="620.91" height="718.289" viewBox="0 0 620.91 718.289">
  <g id="header-illustration" transform="translate(-4179.891 -1409.658)">
    <path id="Path_1" data-name="Path 1" d="M611.365,360.208c-64.7-64.7-5.716-123.6-70.53-188.3C490.881,121.983,444.47,145.646,396.06,129.3a91.677,91.677,0,0,0-93.935,22.519l-2.229,2.2C251.17,202.8,271.746,283.934,336.646,307.2a111.224,111.224,0,0,1,41.781,27.32c64.7,64.729,5.715,123.6,70.558,188.328s123.6,5.716,188.328,70.559,5.716,123.57,70.5,188.27c49.3,49.236,95.144,26.846,142.9,41.941,0-88.342.357-228.971.357-228.971-32.681-55.344,5.16-107.329-51.413-163.877C734.935,366.066,675.95,424.908,611.365,360.208Z" transform="translate(3949.725 1285.003)" fill="#f4f6f7"/>
    <path id="Path_4" data-name="Path 4" d="M377.811,308.912l-11.431-1.658,6.573-45.1A31.607,31.607,0,0,1,404.1,235.21h31.064v11.431h-30.95a20.176,20.176,0,0,0-19.862,17.147Z" transform="translate(4123.208 1490.39)" fill="#cecece"/>
    <rect id="Rectangle_5" data-name="Rectangle 5" width="84.905" height="28.578" transform="matrix(0.141, -0.99, 0.99, 0.141, 4585.83, 1791.626)" fill="#a8a8a8"/>
    <rect id="Rectangle_6" data-name="Rectangle 6" width="8.573" height="130.858" transform="translate(4573.606 1815.22)" fill="#e8e8e8"/>
    <path id="Path_5" data-name="Path 5" d="M541.868,280.092H375.145A11.774,11.774,0,0,1,363.4,268.375h0a11.774,11.774,0,0,1,11.745-11.745H541.868a11.774,11.774,0,0,1,11.717,11.745h0a11.774,11.774,0,0,1-11.717,11.717Z" transform="translate(4117.672 1530.184)" fill="#e8e8e8"/>
    <path id="Path_6" data-name="Path 6" d="M441.211,308.7h-42.1a14.289,14.289,0,0,0-14.146,14.146h70.387A14.289,14.289,0,0,0,441.211,308.7Z" transform="translate(4157.744 1626.918)" fill="#cecece"/>
    <path id="Path_7" data-name="Path 7" d="M478.927,280.092h-69.9a11.774,11.774,0,0,1-11.746-11.717h0a11.774,11.774,0,0,1,11.745-11.745h69.9a11.774,11.774,0,0,1,11.717,11.745h0a11.774,11.774,0,0,1-11.717,11.717Z" transform="translate(4180.613 1530.184)" fill="#cecece"/>
    <path id="Path_8" data-name="Path 8" d="M417.054,297.619H401.765a7.316,7.316,0,0,1-7.259-6.316L390.82,264.84h37.151L424.313,291.3A7.316,7.316,0,0,1,417.054,297.619Z" transform="translate(4168.612 1545.436)" fill="#cecece"/>
    <path id="Path_9" data-name="Path 9" d="M465.44,346.64h-45.9a29.092,29.092,0,0,1-29.378-34.293l12-84.047a41.038,41.038,0,0,1,39.18-34.293h45.9A29.121,29.121,0,0,1,516.651,228.3l-12,84.047A41.1,41.1,0,0,1,465.44,346.64Z" transform="translate(4166.523 1413.825)" fill="#cecece"/>
    <path id="Path_10" data-name="Path 10" d="M460.02,346.64h-45.9a29.092,29.092,0,0,1-29.378-34.293l12-84.047a41.038,41.038,0,0,1,39.18-34.293h45.9A29.121,29.121,0,0,1,511.231,228.3l-12,84.047A41.1,41.1,0,0,1,460.02,346.64Z" transform="translate(4156.454 1413.825)" fill="#e8e8e8"/>
    <path id="Path_11" data-name="Path 11" d="M403.848,162.444c6.316,1.429-4.515,19.719-14.06,27.292C380.9,196.766,377.985,156.557,403.848,162.444Z" transform="translate(4154.898 1354.11)" fill="#151b59"/>
    <path id="Path_12" data-name="Path 12" d="M400.59,290.77,393.5,343.982a4.887,4.887,0,0,1-4.63,4.087H371.241a3.315,3.315,0,0,1-3.429-3.658l3.429-53.641Z" transform="translate(4125.834 1593.608)" fill="#fcb692"/>
    <path id="Path_13" data-name="Path 13" d="M418.033,326.014H360.249a.743.743,0,0,1-.686-.486.714.714,0,0,1,.257-.8l20-14.775a.714.714,0,0,1,.857,1.143l-18.261,13.546h54.755l-2.658-13.917a.686.686,0,0,1,.543-.829.714.714,0,0,1,.857.572l2.858,14.775a.6.6,0,0,1-.143.572.715.715,0,0,1-.6.2Z" transform="translate(4110.478 1628.98)" fill="#485372"/>
    <path id="Path_14" data-name="Path 14" d="M360.307,232.231c-6.373-3.058-16.718-5.173-17.633-9.459a14.775,14.775,0,0,1,3.858-15.032c3.944-3.486,22.234,10.174,22.234,10.174Z" transform="translate(4077.927 1438.299)" fill="#fcb692"/>
    <path id="Path_15" data-name="Path 15" d="M361.218,221.2c-3.086-3.858-21.119-1.343-18.861-10.231,1.457-5.716,13.975-4.8,16.489-2,1.486,1.629,8.373,10.174,9.4,9.8Z" transform="translate(4078.216 1437.532)" fill="#fcb692"/>
    <path id="Path_16" data-name="Path 16" d="M375.529,290.77l-7.087,53.212a4.83,4.83,0,0,1-4.6,4.086H346.122a3.315,3.315,0,0,1-3.4-3.658l3.687-53.641Z" transform="translate(4079.223 1593.608)" fill="#fcb692"/>
    <path id="Path_17" data-name="Path 17" d="M440.2,235.18,374.244,259.7a45.5,45.5,0,0,0-29.606,41.638L341.78,433.424h34.008l25.72-130.543,86.819-5.344Z" transform="translate(4077.507 1490.334)" fill="#11163d"/>
    <path id="Path_18" data-name="Path 18" d="M511.711,187.631H461.757a30.292,30.292,0,0,0-27.406,17.347c-5.715,9-11.2,18.2-16.489,27.52-6.287,11.06-12.317,22.291-18.233,33.579l-2.2,4.2-.486-.286-4.2-2.315q-8.4-4.572-17-8.888c-2.858-1.429-5.716-2.858-8.573-4.229l-4.344-2.058-2.172-1.057-1.115-.514c-.229-.371-.943,0-3.8,3.715a82.87,82.87,0,0,0-6.944,10.717c-2.2,4.172-2.258,4.973-1.8,5.03l.915.772,1.829,1.572,3.658,3.115c2.458,2.086,4.944,4.087,7.4,6.144q7.459,6.087,15.089,11.831l3.829,2.858,1.943,1.4.943.714.286.2.543.343,1.086.657a30.092,30.092,0,0,0,20,3.887,30.95,30.95,0,0,0,18.175-9.688,29.941,29.941,0,0,0,3.2-4.172l1.572-2.458,2.572-4.058c.429-.657.829-1.315,1.229-2V323.49h106.91L542.4,218.9a30.378,30.378,0,0,0-30.692-31.264ZM400.029,271.764l-1.057-.6H398.8a2.286,2.286,0,0,1,1.372.714h0Z" transform="translate(4086.759 1401.996)" fill="#0baf54"/>
    <path id="Path_19" data-name="Path 19" d="M384.75,243.619a.858.858,0,0,1-.457,0,.714.714,0,0,1,0-1l18.89-24.348a.686.686,0,0,1,1,0,.714.714,0,0,1,.143,1l-18.918,24.32a.629.629,0,0,1-.657.029Z" transform="translate(4156.106 1458.519)" fill="#151b59"/>
    <path id="Path_20" data-name="Path 20" d="M485.369,235.18H393.72v26.263a45.439,45.439,0,0,0-24.062,39.094L366.8,433.424h34.008l25.72-130.543,47.439-3.572h.514c11.8-.257,25.006-11.174,25.263-22.862l.886-41.095Z" transform="translate(4123.988 1490.334)" fill="#151b59"/>
    <path id="Path_21" data-name="Path 21" d="M419.419,237.652c-8.116,1.629-18.776,5.716-24.777,3.229-4.058-1.6-11.431-8.573-9.345-13.517s29.378-5.144,29.378-5.144Z" transform="translate(4157.675 1466.258)" fill="#fcb692"/>
    <path id="Path_22" data-name="Path 22" d="M450.053,199.318c4.887,9.516,9.2,19.29,13.317,29.149,2.029,4.915,4.029,9.888,5.973,14.86l.714,1.858.6,1.686.629,1.858a37.96,37.96,0,0,1,1.4,7.773,35.551,35.551,0,0,1-23.977,36.065l-1.772.572-.972.257-1.972.486-3.886.914c-2.6.6-5.2,1.257-7.83,1.8-5.23,1.143-10.517,2.143-15.8,3.058-2.658.429-5.315.915-8,1.286l-4,.572-2,.286-1,.172c-.257.257-.8-.314-2.486-4.687a96.5,96.5,0,0,1-3.8-12.174c-1.057-4.572-.943-5.344-.572-5.258l.915-.457,1.8-.886,3.658-1.8c2.4-1.2,4.858-2.286,7.316-3.429,4.858-2.286,9.8-4.43,14.746-6.43,2.486-1.057,5-1.972,7.487-2.858l3.744-1.429,1.943-.886.943-.371h0a1.4,1.4,0,0,0,.286-1.286.542.542,0,0,0-.314-.343h-.171v-.2l-.857-1.8c-2.258-4.83-4.458-9.716-6.6-14.6-4.287-9.774-8.345-19.633-11.831-29.749a17.718,17.718,0,0,1,32.493-13.889Z" transform="translate(4175.166 1406.17)" fill="#0baf54"/>
    <path id="Path_23" data-name="Path 23" d="M352.933,204.158c-3.515-2.2-6.744,4.258-7.23,9.288a34.892,34.892,0,0,0,1.943,12.06l7.773-7.23C352.276,212.245,354.733,205.3,352.933,204.158Z" transform="translate(4084.787 1431.88)" fill="#fcb692"/>
    <path id="Path_24" data-name="Path 24" d="M376.564,251.3a.726.726,0,0,1-.257-1.4l22.319-8.916a.719.719,0,0,1,.514,1.343l-22.291,8.916Z" transform="translate(4140.802 1501.024)" fill="#edf2f4"/>
    <path id="Path_25" data-name="Path 25" d="M429.69,191.115a91.878,91.878,0,0,0-.743,17.661c.172,2.858.486,5.916.943,8.945a80.053,80.053,0,0,0,1.915,9.288h0a20.2,20.2,0,0,1-38.551,12c-1.286-3.829-2.858-7.716-3.944-11.774s-2.258-8.259-3.115-12.517a138.319,138.319,0,0,1-2.572-26.006v-.543a23.119,23.119,0,1,1,46.21-.286A22.684,22.684,0,0,1,429.69,191.115Z" transform="translate(4155.205 1358.303)" fill="#fcb692"/>
    <path id="Path_26" data-name="Path 26" d="M412.336,180.86c1.8,13.432-16.632,31.893-24.005,16.832C376.928,174.43,412.336,180.86,412.336,180.86Z" transform="translate(4159.785 1387.906)" fill="#dd8b66"/>
    <path id="Path_27" data-name="Path 27" d="M430.518,197.013h0l-.143.229-.286.572-.686,1.257-1.4,2.715c-.943,1.858-1.829,3.8-2.686,5.716s-1.686,3.887-2.486,5.716a40.519,40.519,0,0,1-2.858,5.716l-1.8,2.858a19.49,19.49,0,0,1-35.722-7.2,55.871,55.871,0,0,1,1.057-19.547,87.956,87.956,0,0,1,2.315-9.374c.457-1.572.972-3.115,1.543-4.658l.943-2.4c.143-.4.314-.8.514-1.229l.714-1.572a23.071,23.071,0,0,1,40.98,21.2Z" transform="translate(4152.291 1356.863)" fill="#fcb692"/>
    <path id="Path_28" data-name="Path 28" d="M392.5,173.263a1.772,1.772,0,1,0,1.772-1.743,1.743,1.743,0,0,0-1.772,1.743Z" transform="translate(4171.733 1372.068)" fill="#151b59"/>
    <path id="Path_29" data-name="Path 29" d="M384.92,173.263a1.743,1.743,0,1,0,1.743-1.743A1.743,1.743,0,0,0,384.92,173.263Z" transform="translate(4157.651 1372.068)" fill="#151b59"/>
    <path id="Path_30" data-name="Path 30" d="M790.106,483.248l-7.316-1.572,3.429-14.746,1.143.257-3.172,13.6,6.173,1.315Z" transform="translate(3763.668 1077.63)" fill="#dd8b66"/>
    <path id="Path_31" data-name="Path 31" d="M402.205,174c-3.429-3.944-10.459-4.258-10.545-4.258V168.57a17.633,17.633,0,0,1,11.431,4.658Z" transform="translate(4170.173 1366.588)" fill="#151b59"/>
    <path id="Path_32" data-name="Path 32" d="M383.029,172.149l-.829-.829a10.2,10.2,0,0,1,10.517-2.372l-.429,1.086A9.145,9.145,0,0,0,383.029,172.149Z" transform="translate(4152.598 1366.238)" fill="#151b59"/>
    <path id="Path_33" data-name="Path 33" d="M400.131,178.73c-3.744,1.486-11.431,3.4-11.431,3.4a10.688,10.688,0,0,0,7.973,2.229C400.56,183.331,400.131,178.73,400.131,178.73Z" transform="translate(4164.674 1385.463)" fill="#fff"/>
    <path id="Path_34" data-name="Path 34" d="M432.487,179.1l.257-.943a16.918,16.918,0,0,0-3.772-13.317l-.943.686a16.46,16.46,0,0,1,3.629,11.888c.257-11.431-12.374-15.632-20.347-14.746-11.574-8.573-32.121,7.745-23.52,11.431a46.753,46.753,0,0,0,23.148,2.6,42.872,42.872,0,0,0,8.8,7.716c-4.858,9.631-1.572,28.178,2.858,22.576C435.059,190.845,435.945,181.9,432.487,179.1Z" transform="translate(4159.181 1351.057)" fill="#151b59"/>
    <path id="Path_35" data-name="Path 35" d="M400.727,175.286c3.258-5.716,12.431.972,8.573,7.6C400.27,198.148,393.154,188.718,400.727,175.286Z" transform="translate(4181.082 1375.047)" fill="#fcb692"/>
    <path id="Path_36" data-name="Path 36" d="M397.619,326.014H330.461a.709.709,0,0,1-.314-1.343L361.583,309.9a.71.71,0,1,1,.6,1.286l-28.578,13.4h63.157l-.686-14a.743.743,0,0,1,.686-.772h0a.743.743,0,0,1,.714.686l.743,14.775a.916.916,0,0,1-.2.543.886.886,0,0,1-.4.2Z" transform="translate(4055.161 1628.98)" fill="#485372"/>
    <ellipse id="Ellipse_1" data-name="Ellipse 1" cx="15.861" cy="12.431" rx="15.861" ry="12.431" transform="translate(4421.458 1783.447) rotate(-66.68)" fill="#1b256d"/>
    <path id="Path_37" data-name="Path 37" d="M393.415,267.02c-3.458,8.03-11.431,12.374-17.69,9.631s-8.573-11.431-5.144-19.49,11.431-12.346,17.718-9.631S396.9,258.961,393.415,267.02Z" transform="translate(4128.065 1511.764)" fill="#1b256d"/>
    <path id="Path_41" data-name="Path 41" d="M410.664,216.15a26.463,26.463,0,0,1-5.516-.6,24.005,24.005,0,0,1-20-26.006.718.718,0,0,1,1.429.143A23.52,23.52,0,0,0,428.9,204.976c4.172-5.944,5.715-13.574,3.315-17.347a.686.686,0,0,1,.229-.972.743.743,0,0,1,1,.229c2.629,4.287,1.172,12.431-3.372,18.918a23.319,23.319,0,0,1-19.4,10.345Z" transform="translate(4157.856 1399.997)" fill="#edf2f4"/>
    <path id="Path_42" data-name="Path 42" d="M396.358,205.277h0a.686.686,0,0,1-.571-.343l-4.515-7.83a.743.743,0,0,1,.286-.972.714.714,0,0,1,.972.257L396.5,203.3l4.63-5.944a.714.714,0,0,1,1,0,.686.686,0,0,1,0,1l-5.287,6.773a.657.657,0,0,1-.486.143Z" transform="translate(4169.304 1417.615)" fill="#edf2f4"/>
    <path id="Path_43" data-name="Path 43" d="M401.433,248.3a.743.743,0,0,1-.657-.457.714.714,0,0,1,.657-.829c7.8-3.229,28.578-12.288,30.978-15.432,2-2.629-3.858-17.69-8.03-26.577a.714.714,0,1,1,1.286-.6c1.143,2.429,11.06,23.862,7.888,28.063s-30.407,15.375-31.578,15.861Z" transform="translate(4187.091 1432.258)" fill="#edf2f4"/>
    <path id="Path_44" data-name="Path 44" d="M377.2,244.637a.714.714,0,0,1-.714-.657c0-.286-1.858-26.234,2.086-42.552a.721.721,0,1,1,1.4.343c-3.887,16.089-2.086,41.838-2.058,42.095a.714.714,0,0,1-.657.772Z" transform="translate(4141.167 1426.609)" fill="#edf2f4"/>
    <path id="Path_45" data-name="Path 45" d="M413.431,308.912,402,307.255l6.573-45.1a31.635,31.635,0,0,1,31.15-26.949h31.064v11.431H439.751a20,20,0,0,0-19.833,17.147Z" transform="translate(4189.382 1490.39)" fill="#cecece"/>
    <path id="Path_46" data-name="Path 46" d="M658.52,522.25V784.108h24.463V530.538H796.322V784.108h24.491V530.538H973.3V784.108H997.8V530.538h113.34V784.108H1135.6V522.25Z" transform="translate(3532.802 1180.402)" fill="#ffca55"/>
    <path id="Path_47" data-name="Path 47" d="M780.93,522.25v8.288H768.67v4.144h12.26V784.108h12.231V530.538H906.5v4.144h12.231V784.108h12.232V522.25Z" transform="translate(3737.436 1180.402)" fill="#efac26"/>
    <path id="Path_48" data-name="Path 48" d="M658.52,525.15v4.144h12.231V778.721h12.231V525.15H658.52Z" transform="translate(3532.802 1185.79)" fill="#efac26"/>
    <path id="Path_49" data-name="Path 49" d="M706.74,525.15v4.144h12.231V778.721h12.26V525.15H706.74Z" transform="translate(3622.384 1185.79)" fill="#efac26"/>
    <path id="Path_50" data-name="Path 50" d="M426.449,231.769H292.134a3.572,3.572,0,0,1-3.544-3.544h0a3.544,3.544,0,0,1,3.544-3.515H426.449a3.544,3.544,0,0,1,3.515,3.515h0a3.544,3.544,0,0,1-3.515,3.544Z" transform="translate(3978.692 1470.884)" fill="#151b59"/>
    <path id="Path_51" data-name="Path 51" d="M382.325,231.769h-50.04a3.544,3.544,0,0,1-3.515-3.544h0a3.544,3.544,0,0,1,3.515-3.515h50.068a3.544,3.544,0,0,1,3.515,3.515h0A3.544,3.544,0,0,1,382.325,231.769Z" transform="translate(4053.337 1470.884)" fill="#13ce66"/>
    <path id="Path_52" data-name="Path 52" d="M418.282,282.972H308.258a14.918,14.918,0,0,1-14.117-12.088l-10.831-65.443A10.031,10.031,0,0,1,293.4,193.352H403.422a14.917,14.917,0,0,1,14.117,12.088l10.831,65.443a10.031,10.031,0,0,1-10.088,12.088Z" transform="translate(3968.483 1412.621)" fill="#13ce66"/>
    <path id="Path_53" data-name="Path 53" d="M417.117,282.973H307.092a14.917,14.917,0,0,1-14.117-12.088l-10.831-65.443a10,10,0,0,1,10.088-12.088H402.17a14.918,14.918,0,0,1,14.118,12.088l10.831,65.443a10.031,10.031,0,0,1-10,12.088Z" transform="translate(3966.305 1412.621)" fill="#151b59"/>
    <path id="Path_54" data-name="Path 54" d="M349.031,223.667H305.679a10.317,10.317,0,0,1-9.4-6.887h0a7.659,7.659,0,0,1,.8-7,7.03,7.03,0,0,1,5.716-2.858h43.353a10.317,10.317,0,0,1,9.4,6.887,7.658,7.658,0,0,1-.8,7,7.03,7.03,0,0,1-5.716,2.858Zm-46.1-15.318a5.516,5.516,0,0,0-4.687,2.258,6.116,6.116,0,0,0-.6,5.715h0a8.8,8.8,0,0,0,8.03,5.916h43.353a5.544,5.544,0,0,0,4.687-2.258,6.2,6.2,0,0,0,.6-5.716,8.8,8.8,0,0,0-8.03-5.916Z" transform="translate(3992.038 1437.833)" fill="#edf2f4"/>
    <path id="Path_55" data-name="Path 55" d="M706.307,442.43H675.5v67.815h48.7V460.32Z" transform="translate(3564.347 1032.114)" fill="#151b59"/>
    <path id="Path_56" data-name="Path 56" d="M323.757,220.693H275.174a.714.714,0,0,1-.714-.714V152.134a.714.714,0,0,1,.714-.714h30.807a.714.714,0,1,1,0,1.429H275.8v66.415h47.239v-49.24a.714.714,0,1,1,1.429,0v49.954a.714.714,0,0,1-.715.715Z" transform="translate(3952.441 1334.727)" fill="#13ce66"/>
    <path id="Path_57" data-name="Path 57" d="M301.267,173.529H278.2a.714.714,0,0,1,0-1.429h23.062a.714.714,0,0,1,0,1.429Z" transform="translate(3958.07 1373.146)" fill="#13ce66"/>
    <path id="Path_58" data-name="Path 58" d="M309.383,170.459H278.2a.714.714,0,0,1,0-1.429h31.178a.714.714,0,0,1,0,1.429Z" transform="translate(3958.07 1367.442)" fill="#13ce66"/>
    <path id="Path_59" data-name="Path 59" d="M309.383,167.4H278.2a.714.714,0,1,1,0-1.429h31.178a.714.714,0,0,1,0,1.429Z" transform="translate(3958.07 1361.758)" fill="#13ce66"/>
    <path id="Path_60" data-name="Path 60" d="M303.724,164.339H278.2a.714.714,0,1,1,0-1.429h25.52a.714.714,0,0,1,0,1.429Z" transform="translate(3958.07 1356.073)" fill="#13ce66"/>
    <path id="Path_61" data-name="Path 61" d="M309.383,161.269H278.2a.714.714,0,1,1,0-1.429h31.178a.714.714,0,0,1,0,1.429Z" transform="translate(3958.07 1350.369)" fill="#13ce66"/>
    <path id="Path_62" data-name="Path 62" d="M292.322,158.209H278.2a.714.714,0,0,1,0-1.429h14.117a.714.714,0,0,1,0,1.429Z" transform="translate(3958.07 1344.685)" fill="#13ce66"/>
    <path id="Path_63" data-name="Path 63" d="M303.814,170.738h-17.89a.714.714,0,0,1-.714-.714v-17.89a.707.707,0,0,1,1.2-.514l17.89,17.89a.743.743,0,0,1,.171.8A.715.715,0,0,1,303.814,170.738Zm-17.147-1.429H302.1l-15.432-15.461Z" transform="translate(3972.412 1334.728)" fill="#13ce66"/>
    <path id="Path_64" data-name="Path 64" d="M349.523,227.119a12.86,12.86,0,0,0-6.259,1.629,16.345,16.345,0,0,0-4.83,4.458,34.865,34.865,0,0,0-5.23,12.4,114.884,114.884,0,0,0-2.258,27.32c.372,18.4,1.115,36.837,1.257,55.269a723.65,723.65,0,0,1-6,110.4,295.73,295.73,0,0,1-12.546,53.9,148.877,148.877,0,0,1-11.431,25.234,71.871,71.871,0,0,0-6.259,12.146A33.294,33.294,0,0,0,293.71,543.1a32.578,32.578,0,0,0,3.372,12.946,49.586,49.586,0,0,0,7.83,11.031A96.079,96.079,0,0,0,326.375,583.8a261.282,261.282,0,0,0,50.583,21.433,743.028,743.028,0,0,0,107.6,24.091c36.38,5.716,72.988,9.8,109.682,12.86,73.388,6.116,147.09,8.345,220.735,8.173v4.887c-73.759-.286-147.547-2.858-221.049-9.545-36.722-3.315-73.388-7.659-109.824-13.574a746.162,746.162,0,0,1-107.824-24.863,265.317,265.317,0,0,1-50.9-21.919,98.365,98.365,0,0,1-21.919-17.147,49.664,49.664,0,0,1-8.03-11.431,33.606,33.606,0,0,1-3.458-13.6,35.58,35.58,0,0,1,2.429-13.832,26.515,26.515,0,0,1,1.343-3.229c.543-1.029.972-2.143,1.6-3.115l3.487-6a146.92,146.92,0,0,0,11.431-24.948,296.782,296.782,0,0,0,12.574-53.641,727.7,727.7,0,0,0,6.144-110.167c-.143-18.433-.829-36.837-1.315-55.269a113.653,113.653,0,0,1,2.172-27.635,36.15,36.15,0,0,1,5.4-12.917,17.349,17.349,0,0,1,5.23-4.858,14.545,14.545,0,0,1,6.973-1.858Z" transform="translate(3984.945 1472.704)" fill="#485372"/>
    <rect id="Rectangle_9" data-name="Rectangle 9" width="61.471" height="39.38" transform="translate(4337.926 1538.187)" fill="#151b59"/>
    <path id="Path_65" data-name="Path 65" d="M339.612,188.049a.942.942,0,0,1-.4,0l-23.177-14.86a.715.715,0,0,1-.229-.972.743.743,0,0,1,1-.229l22.862,14.6,22.862-14.6a.743.743,0,0,1,1,.229.714.714,0,0,1-.229.972l-23.177,14.86a.943.943,0,0,1-.514,0Z" transform="translate(4029.064 1372.743)" fill="#edf2f4"/>
    <path id="Path_66" data-name="Path 66" d="M328.791,146.022a.715.715,0,0,1-.686-.543,28.885,28.885,0,0,0-2.372-6.659.743.743,0,0,1,.343-.972.686.686,0,0,1,.943.343,29.81,29.81,0,0,1,2.486,6.973.743.743,0,0,1-.543.857Z" transform="translate(4047.572 1309.375)" fill="#151b59"/>
    <path id="Path_67" data-name="Path 67" d="M327.948,140.755a.743.743,0,0,1-.572-.314,28.3,28.3,0,0,0-3.458-4.144.727.727,0,1,1,1.029-1.029,31.171,31.171,0,0,1,3.6,4.372.686.686,0,0,1-.171.972.856.856,0,0,1-.429.143Z" transform="translate(4043.928 1304.325)" fill="#151b59"/>
    <path id="Path_68" data-name="Path 68" d="M336.34,192.995a30.492,30.492,0,1,1,17.147-55.784.714.714,0,0,1,.171,1,.686.686,0,0,1-.972.171,29.092,29.092,0,1,0,12.8,24.12.714.714,0,1,1,1.429,0A30.55,30.55,0,0,1,336.34,192.995Z" transform="translate(4010.959 1298.668)" fill="#151b59"/>
    <path id="Path_69" data-name="Path 69" d="M711.46,462.808l15.175-15.175-15.175-15.2Z" transform="translate(3631.153 1013.537)" fill="#13ce66"/>
    <path id="Path_70" data-name="Path 70" d="M264.226,196.681a5.487,5.487,0,1,1,3.909-1.607,5.516,5.516,0,0,1-3.909,1.607Zm0-9.6a4.087,4.087,0,1,0,4.087,4.087A4.087,4.087,0,0,0,264.226,187.079Z" transform="translate(3923.181 1398.319)" fill="#151b59"/>
    <path id="Path_71" data-name="Path 71" d="M350.145,168.68a3.115,3.115,0,1,1,3.115-3.115A3.115,3.115,0,0,1,350.145,168.68Zm0-4.8a1.658,1.658,0,0,0-1.686,1.686,1.686,1.686,0,1,0,3.372,0,1.657,1.657,0,0,0-1.686-1.543Z" transform="translate(4087.26 1355.218)" fill="#151b59"/>
    <path id="Path_72" data-name="Path 72" d="M445.795,221.05a3.115,3.115,0,1,1,3.115-3.115A3.115,3.115,0,0,1,445.795,221.05Zm0-4.8a1.686,1.686,0,0,0-1.715,1.686,1.715,1.715,0,0,0,3.4,0,1.686,1.686,0,0,0-1.686-1.6Z" transform="translate(4264.957 1452.51)" fill="#151b59"/>
    <path id="Path_73" data-name="Path 73" d="M272.6,207.3a3.115,3.115,0,0,1-3.115-3.115.714.714,0,1,1,1.429,0,1.686,1.686,0,0,0,1.686,1.686.714.714,0,0,1,.714.714.743.743,0,0,1-.715.714Z" transform="translate(3943.208 1431.424)" fill="#151b59"/>
    <path id="Path_74" data-name="Path 74" d="M403.615,150.489a3.115,3.115,0,0,1-3.115-3.115.714.714,0,0,1,.714-.714.743.743,0,0,1,.714.714,1.658,1.658,0,0,0,1.686,1.686.743.743,0,0,1,.714.714A.714.714,0,0,1,403.615,150.489Z" transform="translate(4186.596 1325.884)" fill="#151b59"/>
    <path id="Path_75" data-name="Path 75" d="M298.86,145.433a4.487,4.487,0,1,1,3.259-1.313,4.487,4.487,0,0,1-3.259,1.313Zm0-7.545a2.923,2.923,0,1,1,0,.114Z" transform="translate(3989.597 1306.935)" fill="#13ce66"/>
    <path id="Path_76" data-name="Path 76" d="M342.214,191.741a.714.714,0,0,1,0-1.429,3.058,3.058,0,0,0,3.058-3.058.714.714,0,0,1,1.429,0,4.487,4.487,0,0,1-4.487,4.487Z" transform="translate(4076.987 1399.972)" fill="#13ce66"/>
    <path id="Path_77" data-name="Path 77" d="M428.624,186.381a.714.714,0,1,1,0-1.429,3.058,3.058,0,0,0,3.058-3.058.714.714,0,1,1,1.429,0A4.487,4.487,0,0,1,428.624,186.381Z" transform="translate(4237.517 1390.014)" fill="#13ce66"/>
    <path id="Path_78" data-name="Path 78" d="M317.054,195.512a.714.714,0,0,1-.714-.714v-9.574a.714.714,0,0,1,1.429,0V194.8A.714.714,0,0,1,317.054,195.512Z" transform="translate(4030.245 1396.201)" fill="#151b59"/>
    <path id="Path_79" data-name="Path 79" d="M318.464,196.888a.714.714,0,0,1-.714-.714v-9.6a.722.722,0,0,1,1.429.143v9.6A.715.715,0,0,1,318.464,196.888Z" transform="translate(4032.865 1398.969)" fill="#13ce66"/>
    <path id="Path_80" data-name="Path 80" d="M298.324,184.644a.714.714,0,0,1-.714-.714V169.154a.714.714,0,1,1,1.429,0v14.775A.714.714,0,0,1,298.324,184.644Z" transform="translate(3995.449 1366.346)" fill="#151b59"/>
    <path id="Path_81" data-name="Path 81" d="M299.9,174.458a.714.714,0,0,1-.714-.714v-7.059a.714.714,0,0,1,1.429,0v7.059A.714.714,0,0,1,299.9,174.458Z" transform="translate(3998.384 1361.758)" fill="#151b59"/>
    <path id="Path_82" data-name="Path 82" d="M312.954,169.84a.714.714,0,0,1-.714-.714V156.694a.714.714,0,0,1,1.429,0v12.431A.714.714,0,0,1,312.954,169.84Z" transform="translate(4022.628 1343.198)" fill="#13ce66"/>
    <rect id="Rectangle_10" data-name="Rectangle 10" width="71.044" height="2.2" transform="translate(4458.438 1700.423)" fill="#fff"/>
    <rect id="Rectangle_11" data-name="Rectangle 11" width="71.044" height="2.2" transform="translate(4463.183 1698.708)" fill="#fff"/>
    <path id="Path_83" data-name="Path 83" d="M331.23,231.053H260.214a.714.714,0,0,1-.714-.714v-4.144a.715.715,0,0,1,.714-.715H331.23a.714.714,0,0,1,.714.715v4.144A.714.714,0,0,1,331.23,231.053Zm-70.3-1.429h69.587v-2.858H260.929Z" transform="translate(3924.649 1472.314)" fill="#ff3e3e"/>
    <path id="Path_84" data-name="Path 84" d="M329.74,229.2H258.724a.714.714,0,0,1-.714-.714v-4.172a.714.714,0,0,1,.714-.714H329.74a.714.714,0,0,1,.714.714v4.172A.715.715,0,0,1,329.74,229.2Zm-70.3-1.429h69.587v-2.858H259.439Z" transform="translate(3921.881 1468.821)" fill="#151b59"/>
    <path id="Path_85" data-name="Path 85" d="M456.857,338.233l-.657-.257-26.32-11,.286-.657a15.317,15.317,0,0,1,9.231-8.573,14.289,14.289,0,0,0,8.573-7.945,14,14,0,0,0-.429-11.6,15.375,15.375,0,0,1,8.8-21.319,13.975,13.975,0,0,0,8.087-19.547,15.346,15.346,0,0,1,8.8-21.319,20.918,20.918,0,0,0,5.144-3.058,11.86,11.86,0,0,1,12.26-1.943h.343a11.431,11.431,0,0,1,7.087,8.8,12.288,12.288,0,0,1-3.886,11.174,12.859,12.859,0,0,0-3.2,4.715,14,14,0,0,0,.429,11.6,15.347,15.347,0,0,1-8.8,21.319,14,14,0,0,0-8.087,19.547,15.346,15.346,0,0,1-8.8,21.319,14.061,14.061,0,0,0-8.573,7.916Zm-25.091-11.917,24.32,10.059a15.6,15.6,0,0,1,8.945-8,13.946,13.946,0,0,0,8.059-19.547,15.375,15.375,0,0,1,8.8-21.319,14.032,14.032,0,0,0,8.573-7.916,14.289,14.289,0,0,0-.429-11.631,15.547,15.547,0,0,1-.429-12.631,14.518,14.518,0,0,1,3.486-5.23,10.831,10.831,0,0,0,3.458-9.888,10.117,10.117,0,0,0-6.23-7.716l-.343-.143a10.374,10.374,0,0,0-10.774,1.715,23.3,23.3,0,0,1-5.487,3.286,13.917,13.917,0,0,0-8.059,19.519,15.518,15.518,0,0,1,.4,12.66h0a15.546,15.546,0,0,1-9.2,8.573,13.975,13.975,0,0,0-8.087,19.547,15.346,15.346,0,0,1-8.8,21.319A14.289,14.289,0,0,0,431.766,326.316Z" transform="translate(4241.177 1480.902)" fill="#151b59"/>
    <path id="Path_86" data-name="Path 86" d="M469.259,408.106l-.4-.6A20.633,20.633,0,0,1,466,390.873c.743-4.973,1.429-9.688-2.572-15.632s-8.573-7.087-13.489-8.288a20.462,20.462,0,0,1-17.146-25.52c.743-4.973,1.429-9.688-2.544-15.632h0c-4-5.944-8.573-7.087-13.517-8.288a20.4,20.4,0,0,1-17.147-25.491,28.579,28.579,0,0,0,.4-8.116,15.661,15.661,0,0,1,6.859-14.975l.429-.286a15.175,15.175,0,0,1,14.918-1.343,16.09,16.09,0,0,1,9.459,12.488,17.775,17.775,0,0,0,2.858,7.23c4,5.944,8.573,7.087,13.517,8.288s10.031,2.458,14.289,8.888a20.719,20.719,0,0,1,2.858,16.632c-.715,4.973-1.429,9.688,2.572,15.632s8.573,7.087,13.489,8.288A20.433,20.433,0,0,1,498.38,370.24c-.743,5-1.429,9.688,2.572,15.632l.372.6ZM431.479,325a20.633,20.633,0,0,1,2.858,16.632c-.743,4.973-1.429,9.688,2.572,15.632s8.573,7.087,13.489,8.288a20.462,20.462,0,0,1,17.147,25.52c-.715,4.83-1.4,9.374,2.172,15.032l29.835-20a20.861,20.861,0,0,1-2.4-16.032c.743-4.973,1.429-9.688-2.544-15.632s-8.573-7.087-13.517-8.288a20.4,20.4,0,0,1-17.147-25.491c.743-5,1.429-9.688-2.572-15.632s-8.573-7.087-13.489-8.288-10.059-2.486-14.289-8.888a18.975,18.975,0,0,1-3.172-7.8,14.8,14.8,0,0,0-8.573-11.431,13.917,13.917,0,0,0-13.546,1.229l-.429.286a14.288,14.288,0,0,0-6.23,13.6,29.919,29.919,0,0,1-.429,8.573c-.714,4.973-1.429,9.688,2.572,15.632s8.573,7.087,13.489,8.288a20.576,20.576,0,0,1,14.289,8.859Z" transform="translate(4183.623 1547.488)" fill="#151b59"/>
    <path id="Path_87" data-name="Path 87" d="M418.8,371.83c14.518,47.611,46.239,51.9,46.239,51.9s23.92-21.262,9.4-68.872S412.511,251.26,412.511,251.26,404.28,324.219,418.8,371.83Z" transform="translate(4204.592 1520.208)" fill="#13ce66"/>
    <path id="Path_88" data-name="Path 88" d="M412.49,251.26l52.583,172.467s-31.721-4.287-46.239-51.9S412.49,251.26,412.49,251.26Z" transform="translate(4204.612 1520.208)" fill="#0baf54"/>
    <path id="Path_89" data-name="Path 89" d="M418.145,367.868c-5.716,60.328,27.92,80.018,27.92,80.018s36.808-12.774,42.581-73.131S466.984,229.38,466.984,229.38,423.918,307.54,418.145,367.868Z" transform="translate(4218.162 1479.559)" fill="#13ce66"/>
    <path id="Path_90" data-name="Path 90" d="M467,229.33,446.077,447.836s-33.722-19.547-27.92-80.018S467,229.33,467,229.33Z" transform="translate(4218.15 1479.466)" fill="#0baf54"/>
    <path id="Path_91" data-name="Path 91" d="M452.982,400.156h0l-33.407-7.087a.714.714,0,0,1-.543-.857,18.89,18.89,0,0,1,9.145-12.431,17.375,17.375,0,0,0,5.458-25.72,18.747,18.747,0,0,1,5.716-27.549,17.633,17.633,0,0,0,8.573-11.6h0a17.546,17.546,0,0,0-3.172-14.06A18.776,18.776,0,0,1,450.61,273.3a25.721,25.721,0,0,0,5.516-4.8,14.46,14.46,0,0,1,14.289-5.058h.457a14.089,14.089,0,0,1,10.431,8.974,14.86,14.86,0,0,1-2.2,14.289,16.148,16.148,0,0,0-2.858,6.516,17.547,17.547,0,0,0,3.143,14.06,18.747,18.747,0,0,1-5.716,27.549,17.347,17.347,0,0,0-5.43,25.72,18.718,18.718,0,0,1-5.859,27.549,17.461,17.461,0,0,0-8.573,11.574.885.885,0,0,1-.314.457A.944.944,0,0,1,452.982,400.156Zm-32.55-8.373,32.007,6.8a19.09,19.09,0,0,1,9-11.745,17.632,17.632,0,0,0,8.574-11.6,17.433,17.433,0,0,0-3.172-14.06,18.776,18.776,0,0,1,5.858-27.549,17.318,17.318,0,0,0,5.43-25.72,19.062,19.062,0,0,1-3.315-15.118,17.349,17.349,0,0,1,3.143-7.059,13.46,13.46,0,0,0,1.972-12.86,12.632,12.632,0,0,0-9.4-8.087H470.1a12.974,12.974,0,0,0-12.831,4.544,28.319,28.319,0,0,1-5.858,5.173,17.29,17.29,0,0,0-5.43,25.72,18.718,18.718,0,0,1-5.716,27.549,17.289,17.289,0,0,0-5.43,25.72,18.719,18.719,0,0,1-5.858,27.549,17.775,17.775,0,0,0-8.545,10.745Z" transform="translate(4220.99 1542.235)" fill="#edf2f4"/>
    <path id="Path_92" data-name="Path 92" d="M433.22,357.605c-19,52.812,6.8,78.075,6.8,78.075s35.951-3.058,54.926-55.87,13.832-135.43,13.832-135.43S452.224,304.708,433.22,357.605Z" transform="translate(4234.408 1507.426)" fill="#13ce66"/>
    <path id="Path_93" data-name="Path 93" d="M508.755,244.36,440,435.66s-25.72-25.263-6.8-78.074S508.755,244.36,508.755,244.36Z" transform="translate(4234.432 1507.389)" fill="#0baf54"/>
    <path id="Path_94" data-name="Path 94" d="M822.563,669.7h58.984l8.574-68.844H813.99Z" transform="translate(3821.63 1326.442)" fill="#151b59"/>
  </g>
</svg>
